# ProBuilder 4.4.0
# https://unity3d.com/unity/features/worldbuilding/probuilder
# 10/30/2020 12:30:45 PM

mtllib ./Ground_(5).mtl
o Ground (5)

g Ground (5)
v 0 0 0
v -13.99999 0 0
v 0 1 0
v -13.99999 1 0
v -13.99999 0 -2
v -13.99999 1 -2
v 0 0 -2
v 0 1 -2

vt 0 0
vt -13.99999 0
vt 0 1
vt -13.99999 1
vt -2 0
vt -2 1
vt 13.99999 0
vt 13.99999 1
vt 2 0
vt 2 1
vt 0 -2
vt 13.99999 -2
vt -13.99999 -2

vn 0 0 1
vn -1 0 0
vn 0 0 -1
vn 1 0 0
vn 0 1 0
vn 0 -1 0

usemtl PB_Ground_MAT
f 3/3/1 4/4/1 2/2/1 1/1/1
f 4/3/2 6/6/2 5/5/2 2/1/2
f 6/8/3 8/3/3 7/1/3 5/7/3
f 8/10/4 3/3/4 1/1/4 7/9/4
f 8/11/5 6/12/5 4/7/5 3/1/5
f 1/1/6 2/2/6 5/13/6 7/11/6

