# ProBuilder 4.4.0
# https://unity3d.com/unity/features/worldbuilding/probuilder
# 10/30/2020 12:30:45 PM

mtllib ./Log.mtl
o Log

g Log
v 0 0 0
v -16 5.960464E-08 0
v 0 0.5 0
v -16 0.5000001 0
v -16 5.960464E-08 -2
v -16 0.5000001 -2
v 0 0 -2
v 0 0.5 -2

vt 0 0
vt -16 5.960464E-08
vt 0 0.5
vt -16 0.5000001
vt -2 5.960464E-08
vt -2 0.5000001
vt 16 5.960464E-08
vt 16 0.5000001
vt 2 0
vt 2 0.5
vt 1.862645E-09 -2
vt 16 -2
vt -16 -2

vn 0 0 1
vn -1 0 0
vn 0 0 -1
vn 1 0 0
vn 3.72529E-09 1 0
vn -3.72529E-09 -1 0

usemtl PB_Wood_MAT
f 3/3/1 4/4/1 2/2/1 1/1/1
f 4/3/2 6/6/2 5/5/2 2/1/2
f 6/8/3 8/3/3 7/1/3 5/7/3
f 8/10/4 3/3/4 1/1/4 7/9/4
f 8/11/5 6/12/5 4/7/5 3/1/5
f 1/1/6 2/2/6 5/13/6 7/11/6

