# ProBuilder 4.4.0
# https://unity3d.com/unity/features/worldbuilding/probuilder
# 11/6/2020 9:01:10 PM

mtllib ./Tree_5.mtl
o Tree_5

g TreeTrunk_(2)
v -143.01 29.92 0.31
v -148.01 29.92 0.31
v -143.01 35.92 0.31
v -148.01 35.92 0.31
v -148.01 29.92 -1.69
v -148.01 35.92 -1.69
v -143.01 29.92 -1.69
v -143.01 35.92 -1.69

vt 0 0
vt -5 0
vt 0 6
vt -5 6
vt -2 0
vt -2 6
vt 5 0
vt 5 6
vt 2 0
vt 2 6
vt 0 -2
vt 5 -2
vt -5 -2

vn 0 0 1
vn -1 0 0
vn 0 0 -1
vn 1 0 0
vn 0 1 0
vn 0 -1 0

usemtl PB_Wood_MAT
f 3/3/1 4/4/1 2/2/1 1/1/1
f 4/3/2 6/6/2 5/5/2 2/1/2
f 6/8/3 8/3/3 7/1/3 5/7/3
f 8/10/4 3/3/4 1/1/4 7/9/4
f 8/11/5 6/12/5 4/7/5 3/1/5
f 1/1/6 2/2/6 5/13/6 7/11/6

g TreeTrunk_(1)
v -143.01 26.92 0.31
v -143.01 -2.08 0.31
v -148.01 -2.08 0.31
v -148.01 26.92 0.31
v -148.01 -2.08 -1.69
v -148.01 26.92 -1.69
v -143.01 -2.08 -1.69
v -143.01 26.92 -1.69

vt 0 29
vt 0 0
vt -5 0
vt -5 29
vt -2 0
vt -2 29
vt 5 29
vt 5 0
vt 2 29
vt 2 0
vt 0 -2
vt 5 -2
vt -5 -2

vn 0 0 1
vn -1 0 0
vn 0 0 -1
vn 1 0 0
vn 0 1 0
vn 0 -1 0

usemtl PB_Wood_MAT
f 12/17/7 11/16/7 10/15/7 9/14/7
f 14/19/8 13/18/8 11/15/8 12/14/8
f 16/14/9 15/15/9 13/21/9 14/20/9
f 9/14/10 10/15/10 15/23/10 16/22/10
f 14/25/11 12/21/11 9/15/11 16/24/11
f 11/16/12 13/26/12 15/24/12 10/15/12

g TreeTrunk
v -143.01 35.92 2.31
v -143.01 -2.08 2.31
v -148.01 -2.08 2.31
v -148.01 35.92 2.31
v -148.01 -2.08 0.3099999
v -148.01 35.92 0.3099999
v -143.01 -2.08 0.3099999
v -143.01 35.92 0.3099999

vt 0 38
vt 0 0
vt -5 0
vt -5 38
vt -2 0
vt -2 38
vt 5 38
vt 5 0
vt 2 38
vt 2 0
vt 0 -2
vt 5 -2
vt -5 -2

vn 0 0 1
vn -1 0 0
vn 0 0 -1
vn 1 0 0
vn 0 1 0
vn 0 -1 0

usemtl PB_Wood_MAT
f 20/30/13 19/29/13 18/28/13 17/27/13
f 22/32/14 21/31/14 19/28/14 20/27/14
f 24/27/15 23/28/15 21/34/15 22/33/15
f 17/27/16 18/28/16 23/36/16 24/35/16
f 22/38/17 20/34/17 17/28/17 24/37/17
f 19/29/18 21/39/18 23/37/18 18/28/18

g Branch
v -131.26 26.92 0.31
v -131.26 25.92 0.31
v -143.01 25.92 0.31
v -143.01 26.92 0.31
v -143.01 25.92 -1.69
v -143.01 26.92 -1.69
v -131.26 25.92 -1.69
v -131.26 26.92 -1.69

vt 0 1
vt 0 0
vt -11.75 0
vt -11.75 1
vt -2 0
vt -2 1
vt 11.75 1
vt 11.75 0
vt 2 1
vt 2 0
vt 0 -2
vt 11.75 -2
vt -11.75 -2

vn 0 0 1
vn -1 0 0
vn 0 0 -1
vn 1 0 0
vn 0 1 0
vn 0 -1 0

usemtl PB_Wood_MAT
f 28/43/19 27/42/19 26/41/19 25/40/19
f 30/45/20 29/44/20 27/41/20 28/40/20
f 32/40/21 31/41/21 29/47/21 30/46/21
f 25/40/22 26/41/22 31/49/22 32/48/22
f 30/51/23 28/47/23 25/41/23 32/50/23
f 27/42/24 29/52/24 31/50/24 26/41/24

