# ProBuilder 4.4.0
# https://unity3d.com/unity/features/worldbuilding/probuilder
# 11/6/2020 6:56:17 PM

mtllib ./Tree_4.mtl
o Tree_4

g TreeTrunk_(9)
v -109.4 26.92 0.31
v -114.4 26.92 0.31
v -109.4 35.92 0.31
v -114.4 35.92 0.31
v -114.4 26.92 -1.69
v -114.4 35.92 -1.69
v -109.4 26.92 -1.69
v -109.4 35.92 -1.69

vt 0 0
vt -5 0
vt 0 8.999998
vt -5 8.999998
vt -2 0
vt -2 8.999998
vt 5 0
vt 5 8.999998
vt 2 0
vt 2 8.999998
vt 0 -2
vt 5 -2
vt -5 -2

vn 0 0 1
vn -1 0 0
vn 0 0 -1
vn 1 0 0
vn 0 1 0
vn 0 -1 0

usemtl PB_Wood_MAT
f 3/3/1 4/4/1 2/2/1 1/1/1
f 4/3/2 6/6/2 5/5/2 2/1/2
f 6/8/3 8/3/3 7/1/3 5/7/3
f 8/10/4 3/3/4 1/1/4 7/9/4
f 8/11/5 6/12/5 4/7/5 3/1/5
f 1/1/6 2/2/6 5/13/6 7/11/6

g Branch_(16)
v -105.4 19.92 0.31
v -105.4 18.92 0.31
v -114.4 18.92 0.31
v -114.4 19.92 0.31
v -114.4 18.92 -1.69
v -114.4 19.92 -1.69
v -105.4 18.92 -1.69
v -105.4 19.92 -1.69

vt 0 1
vt 0 0
vt -9 0
vt -9 1
vt -2 0
vt -2 1
vt 9 1
vt 9 0
vt 2 1
vt 2 0
vt 0 -2
vt 9 -2
vt -9 -2

vn 0 0 1
vn -1 0 0
vn 0 0 -1
vn 1 0 0
vn 0 1 0
vn 0 -1 0

usemtl PB_Wood_MAT
f 12/17/7 11/16/7 10/15/7 9/14/7
f 14/19/8 13/18/8 11/15/8 12/14/8
f 16/14/9 15/15/9 13/21/9 14/20/9
f 9/14/10 10/15/10 15/23/10 16/22/10
f 14/25/11 12/21/11 9/15/11 16/24/11
f 11/16/12 13/26/12 15/24/12 10/15/12

g TreeTrunk_(7)
v -109.4 18.92 0.31
v -109.4 16.92 0.31
v -114.4 16.92 0.31
v -114.4 18.92 0.31
v -114.4 16.92 -1.69
v -114.4 18.92 -1.69
v -109.4 16.92 -1.69
v -109.4 18.92 -1.69

vt 0 1.999998
vt 0 0
vt -5 0
vt -5 1.999998
vt -2 0
vt -2 1.999998
vt 5 1.999998
vt 5 0
vt 2 1.999998
vt 2 0
vt 0 -2
vt 5 -2
vt -5 -2

vn 0 0 1
vn -1 0 0
vn 0 0 -1
vn 1 0 0
vn 0 1 0
vn 0 -1 0

usemtl PB_Wood_MAT
f 20/30/13 19/29/13 18/28/13 17/27/13
f 22/32/14 21/31/14 19/28/14 20/27/14
f 24/27/15 23/28/15 21/34/15 22/33/15
f 17/27/16 18/28/16 23/36/16 24/35/16
f 22/38/17 20/34/17 17/28/17 24/37/17
f 19/29/18 21/39/18 23/37/18 18/28/18

g Branch_(13)
v -107.4 12.92 0.31
v -107.4 11.92 0.31
v -109.4 11.92 0.31
v -109.4 12.92 0.31
v -109.4 11.92 -1.69
v -109.4 12.92 -1.69
v -107.4 11.92 -1.69
v -107.4 12.92 -1.69

vt 0 1
vt 0 0
vt -2 0
vt -2 1
vt 2 1
vt 2 0
vt 0 -2
vt 2 -2
vt -2 -2

vn 0 0 1
vn -1 0 0
vn 0 0 -1
vn 1 0 0
vn 0 1 0
vn 0 -1 0

usemtl PB_Wood_MAT
f 28/43/19 27/42/19 26/41/19 25/40/19
f 30/43/20 29/42/20 27/41/20 28/40/20
f 32/40/21 31/41/21 29/45/21 30/44/21
f 25/40/22 26/41/22 31/45/22 32/44/22
f 30/47/23 28/45/23 25/41/23 32/46/23
f 27/42/24 29/48/24 31/46/24 26/41/24

g Branch_(18)
v -107.4 22.92 0.31
v -107.4 21.92 0.31
v -109.4 21.92 0.31
v -109.4 22.92 0.31
v -109.4 21.92 -1.69
v -109.4 22.92 -1.69
v -107.4 21.92 -1.69
v -107.4 22.92 -1.69

vt 0 1
vt 0 0
vt -2 0
vt -2 1
vt 2 1
vt 2 0
vt 0 -2
vt 2 -2
vt -2 -2

vn 0 0 1
vn -1 0 0
vn 0 0 -1
vn 1 0 0
vn 0 1 0
vn 0 -1 0

usemtl PB_Wood_MAT
f 36/52/25 35/51/25 34/50/25 33/49/25
f 38/52/26 37/51/26 35/50/26 36/49/26
f 40/49/27 39/50/27 37/54/27 38/53/27
f 33/49/28 34/50/28 39/54/28 40/53/28
f 38/56/29 36/54/29 33/50/29 40/55/29
f 35/51/30 37/57/30 39/55/30 34/50/30

g TreeTrunk_(6)
v -109.4 13.92 0.31
v -109.4 11.92 0.31
v -114.4 11.92 0.31
v -114.4 13.92 0.31
v -114.4 11.92 -1.69
v -114.4 13.92 -1.69
v -109.4 11.92 -1.69
v -109.4 13.92 -1.69

vt 0 1.999998
vt 0 0
vt -5 0
vt -5 1.999998
vt -2 0
vt -2 1.999998
vt 5 1.999998
vt 5 0
vt 2 1.999998
vt 2 0
vt 0 -2
vt 5 -2
vt -5 -2

vn 0 0 1
vn -1 0 0
vn 0 0 -1
vn 1 0 0
vn 0 1 0
vn 0 -1 0

usemtl PB_Wood_MAT
f 44/61/31 43/60/31 42/59/31 41/58/31
f 46/63/32 45/62/32 43/59/32 44/58/32
f 48/58/33 47/59/33 45/65/33 46/64/33
f 41/58/34 42/59/34 47/67/34 48/66/34
f 46/69/35 44/65/35 41/59/35 48/68/35
f 43/60/36 45/70/36 47/68/36 42/59/36

g TreeTrunk_(8)
v -109.4 23.92 0.31
v -109.4 21.92 0.31
v -114.4 21.92 0.31
v -114.4 23.92 0.31
v -114.4 21.92 -1.69
v -114.4 23.92 -1.69
v -109.4 21.92 -1.69
v -109.4 23.92 -1.69

vt 0 1.999998
vt 0 0
vt -5 0
vt -5 1.999998
vt -2 0
vt -2 1.999998
vt 5 1.999998
vt 5 0
vt 2 1.999998
vt 2 0
vt 0 -2
vt 5 -2
vt -5 -2

vn 0 0 1
vn -1 0 0
vn 0 0 -1
vn 1 0 0
vn 0 1 0
vn 0 -1 0

usemtl PB_Wood_MAT
f 52/74/37 51/73/37 50/72/37 49/71/37
f 54/76/38 53/75/38 51/72/38 52/71/38
f 56/71/39 55/72/39 53/78/39 54/77/39
f 49/71/40 50/72/40 55/80/40 56/79/40
f 54/82/41 52/78/41 49/72/41 56/81/41
f 51/73/42 53/83/42 55/81/42 50/72/42

g Branch_(12)
v -104.4 9.92 0.31
v -104.4 8.92 0.31
v -114.4 8.92 0.31
v -114.4 9.92 0.31
v -114.4 8.92 -1.69
v -114.4 9.92 -1.69
v -104.4 8.92 -1.69
v -104.4 9.92 -1.69

vt 0 1
vt 0 0
vt -10 0
vt -10 1
vt -2 0
vt -2 1
vt 10 1
vt 10 0
vt 2 1
vt 2 0
vt 0 -2
vt 10 -2
vt -10 -2

vn 0 0 1
vn -1 0 0
vn 0 0 -1
vn 1 0 0
vn 0 1 0
vn 0 -1 0

usemtl PB_Wood_MAT
f 60/87/43 59/86/43 58/85/43 57/84/43
f 62/89/44 61/88/44 59/85/44 60/84/44
f 64/84/45 63/85/45 61/91/45 62/90/45
f 57/84/46 58/85/46 63/93/46 64/92/46
f 62/95/47 60/91/47 57/85/47 64/94/47
f 59/86/48 61/96/48 63/94/48 58/85/48

g Branch_(14)
v -109.4 14.92 0.31
v -109.4 13.92 0.31
v -121.4 13.92 0.31
v -121.4 14.92 0.31
v -121.4 13.92 -1.69
v -121.4 14.92 -1.69
v -109.4 13.92 -1.69
v -109.4 14.92 -1.69

vt 0 1
vt 0 0
vt -12 0
vt -12 1
vt -2 0
vt -2 1
vt 12 1
vt 12 0
vt 2 1
vt 2 0
vt 0 -2
vt 12 -2
vt -12 -2

vn 0 0 1
vn -1 0 0
vn 0 0 -1
vn 1 0 0
vn 0 1 0
vn 0 -1 0

usemtl PB_Wood_MAT
f 68/100/49 67/99/49 66/98/49 65/97/49
f 70/102/50 69/101/50 67/98/50 68/97/50
f 72/97/51 71/98/51 69/104/51 70/103/51
f 65/97/52 66/98/52 71/106/52 72/105/52
f 70/108/53 68/104/53 65/98/53 72/107/53
f 67/99/54 69/109/54 71/107/54 66/98/54

g Branch_(10)
v -109.4 3.92 0.31
v -109.4 2.92 0.31
v -119.4 2.92 0.31
v -119.4 3.92 0.31
v -119.4 2.92 -1.69
v -119.4 3.92 -1.69
v -109.4 2.92 -1.69
v -109.4 3.92 -1.69

vt 0 1
vt 0 0
vt -10 0
vt -10 1
vt -2 0
vt -2 1
vt 10 1
vt 10 0
vt 2 1
vt 2 0
vt 0 -2
vt 10 -2
vt -10 -2

vn 0 0 1
vn -1 0 0
vn 0 0 -1
vn 1 0 0
vn 0 1 0
vn 0 -1 0

usemtl PB_Wood_MAT
f 76/113/55 75/112/55 74/111/55 73/110/55
f 78/115/56 77/114/56 75/111/56 76/110/56
f 80/110/57 79/111/57 77/117/57 78/116/57
f 73/110/58 74/111/58 79/119/58 80/118/58
f 78/121/59 76/117/59 73/111/59 80/120/59
f 75/112/60 77/122/60 79/120/60 74/111/60

g Branch_(15)
v -114.4 17.92 0.31
v -114.4 16.92 0.31
v -116.4 16.92 0.31
v -116.4 17.92 0.31
v -116.4 16.92 -1.69
v -116.4 17.92 -1.69
v -114.4 16.92 -1.69
v -114.4 17.92 -1.69

vt 0 1
vt 0 0
vt -2 0
vt -2 1
vt 2 1
vt 2 0
vt 0 -2
vt 2 -2
vt -2 -2

vn 0 0 1
vn -1 0 0
vn 0 0 -1
vn 1 0 0
vn 0 1 0
vn 0 -1 0

usemtl PB_Wood_MAT
f 84/126/61 83/125/61 82/124/61 81/123/61
f 86/126/62 85/125/62 83/124/62 84/123/62
f 88/123/63 87/124/63 85/128/63 86/127/63
f 81/123/64 82/124/64 87/128/64 88/127/64
f 86/130/65 84/128/65 81/124/65 88/129/65
f 83/125/66 85/131/66 87/129/66 82/124/66

g Branch_(17)
v -109.4 24.92 0.31
v -109.4 23.92 0.31
v -125.4 23.92 0.31
v -125.4 24.92 0.31
v -125.4 23.92 -1.69
v -125.4 24.92 -1.69
v -109.4 23.92 -1.69
v -109.4 24.92 -1.69

vt 0 1
vt 0 0
vt -16 0
vt -16 1
vt -2 0
vt -2 1
vt 16 1
vt 16 0
vt 2 1
vt 2 0
vt 0 -2
vt 16 -2
vt -16 -2

vn 0 0 1
vn -1 0 0
vn 0 0 -1
vn 1 0 0
vn 0 1 0
vn 0 -1 0

usemtl PB_Wood_MAT
f 92/135/67 91/134/67 90/133/67 89/132/67
f 94/137/68 93/136/68 91/133/68 92/132/68
f 96/132/69 95/133/69 93/139/69 94/138/69
f 89/132/70 90/133/70 95/141/70 96/140/70
f 94/143/71 92/139/71 89/133/71 96/142/71
f 91/134/72 93/144/72 95/142/72 90/133/72

g Branch_(11)
v -114.4 6.92 0.31
v -114.4 5.92 0.31
v -116.4 5.92 0.31
v -116.4 6.92 0.31
v -116.4 5.92 -1.69
v -116.4 6.92 -1.69
v -114.4 5.92 -1.69
v -114.4 6.92 -1.69

vt 0 1
vt 0 0
vt -2 0
vt -2 1
vt 2 1
vt 2 0
vt 0 -2
vt 2 -2
vt -2 -2

vn 0 0 1
vn -1 0 0
vn 0 0 -1
vn 1 0 0
vn 0 1 0
vn 0 -1 0

usemtl PB_Wood_MAT
f 100/148/73 99/147/73 98/146/73 97/145/73
f 102/148/74 101/147/74 99/146/74 100/145/74
f 104/145/75 103/146/75 101/150/75 102/149/75
f 97/145/76 98/146/76 103/150/76 104/149/76
f 102/152/77 100/150/77 97/146/77 104/151/77
f 99/147/78 101/153/78 103/151/78 98/146/78

g TreeTrunk_(3)
v -109.4 35.92 2.31
v -109.4 -2.08 2.31
v -114.4 -2.08 2.31
v -114.4 35.92 2.31
v -114.4 -2.08 0.3099999
v -114.4 35.92 0.3099999
v -109.4 -2.08 0.3099999
v -109.4 35.92 0.3099999

vt 0 38
vt 0 0
vt -5 0
vt -5 38
vt -2 0
vt -2 38
vt 5 38
vt 5 0
vt 2 38
vt 2 0
vt 0 -2
vt 5 -2
vt -5 -2

vn 0 0 1
vn -1 0 0
vn 0 0 -1
vn 1 0 0
vn 0 1 0
vn 0 -1 0

usemtl PB_Wood_MAT
f 108/157/79 107/156/79 106/155/79 105/154/79
f 110/159/80 109/158/80 107/155/80 108/154/80
f 112/154/81 111/155/81 109/161/81 110/160/81
f 105/154/82 106/155/82 111/163/82 112/162/82
f 110/165/83 108/161/83 105/155/83 112/164/83
f 107/156/84 109/166/84 111/164/84 106/155/84

g Branch_(9)
v -105.4 0.9200001 0.31
v -105.4 -0.07999992 0.31
v -109.4 -0.07999992 0.31
v -109.4 0.9200001 0.31
v -109.4 -0.07999992 -1.69
v -109.4 0.9200001 -1.69
v -105.4 -0.07999992 -1.69
v -105.4 0.9200001 -1.69

vt 0 1
vt 0 0
vt -4 0
vt -4 1
vt -2 0
vt -2 1
vt 4 1
vt 4 0
vt 2 1
vt 2 0
vt 0 -2
vt 4 -2
vt -4 -2

vn 0 0 1
vn -1 0 0
vn 0 0 -1
vn 1 0 0
vn 0 1 0
vn 0 -1 0

usemtl PB_Wood_MAT
f 116/170/85 115/169/85 114/168/85 113/167/85
f 118/172/86 117/171/86 115/168/86 116/167/86
f 120/167/87 119/168/87 117/174/87 118/173/87
f 113/167/88 114/168/88 119/176/88 120/175/88
f 118/178/89 116/174/89 113/168/89 120/177/89
f 115/169/90 117/179/90 119/177/90 114/168/90

g TreeTrunk_(5)
v -109.4 8.919998 0.31
v -109.4 5.92 0.31
v -114.4 5.92 0.31
v -114.4 8.919998 0.31
v -114.4 5.92 -1.69
v -114.4 8.919998 -1.69
v -109.4 5.92 -1.69
v -109.4 8.919998 -1.69

vt 0 2.999998
vt 0 0
vt -5 0
vt -5 2.999998
vt -2 0
vt -2 2.999998
vt 5 2.999998
vt 5 0
vt 2 2.999998
vt 2 0
vt 0 -2
vt 5 -2
vt -5 -2

vn 0 0 1
vn -1 0 0
vn 0 0 -1
vn 1 0 0
vn 0 1 0
vn 0 -1 0

usemtl PB_Wood_MAT
f 124/183/91 123/182/91 122/181/91 121/180/91
f 126/185/92 125/184/92 123/181/92 124/180/92
f 128/180/93 127/181/93 125/187/93 126/186/93
f 121/180/94 122/181/94 127/189/94 128/188/94
f 126/191/95 124/187/95 121/181/95 128/190/95
f 123/182/96 125/192/96 127/190/96 122/181/96

g TreeTrunk_(4)
v -109.4 2.919998 0.31
v -109.4 -2.08 0.31
v -114.4 -2.08 0.31
v -114.4 2.919998 0.31
v -114.4 -2.08 -1.69
v -114.4 2.919998 -1.69
v -109.4 -2.08 -1.69
v -109.4 2.919998 -1.69

vt 0 4.999998
vt 0 0
vt -5 0
vt -5 4.999998
vt -2 0
vt -2 4.999998
vt 5 4.999998
vt 5 0
vt 2 4.999998
vt 2 0
vt 0 -2
vt 5 -2
vt -5 -2

vn 0 0 1
vn -1 0 0
vn 0 0 -1
vn 1 0 0
vn 0 1 0
vn 0 -1 0

usemtl PB_Wood_MAT
f 132/196/97 131/195/97 130/194/97 129/193/97
f 134/198/98 133/197/98 131/194/98 132/193/98
f 136/193/99 135/194/99 133/200/99 134/199/99
f 129/193/100 130/194/100 135/202/100 136/201/100
f 134/204/101 132/200/101 129/194/101 136/203/101
f 131/195/102 133/205/102 135/203/102 130/194/102

