# ProBuilder 4.4.0
# https://unity3d.com/unity/features/worldbuilding/probuilder
# 1/27/2021 2:51:36 PM

mtllib ./BossRoom.mtl
o BossRoom

g BossRoom_BackWall
v -222 -2 4.75
v -266 -2 4.75
v -222 23 4.75
v -266 23 4.75
v -266 -2 3.75
v -266 23 3.75
v -222 -2 3.75
v -222 23 3.75

vt 0 0
vt -44 0
vt 0 25
vt -44 25
vt -1 0
vt -1 25
vt 44 0
vt 44 25
vt 1 2.980232E-08
vt 1 25
vt 0 -1
vt 44 -1
vt -44 -1

vn 0 0 1
vn -1 0 0
vn 0 0 -1
vn 1 0 0
vn 0 1 0
vn 6.773255E-10 -1 -2.980232E-08

usemtl Crystal_1
f 3/3/1 4/4/1 2/2/1 1/1/1
f 4/3/2 6/6/2 5/5/2 2/1/2
f 6/8/3 8/3/3 7/1/3 5/7/3
f 8/10/4 3/3/4 1/1/4 7/9/4
f 8/11/5 6/12/5 4/7/5 3/1/5
f 1/1/6 2/2/6 5/13/6 7/11/6

g BossRoom_Wall_(1)
v -262 20 0
v -262 3 0
v -263 3 0
v -263 20 0
v -263 3 -2
v -263 20 -2
v -262 3 -2
v -262 20 -2

vt 0 17
vt 0 0
vt -1 0
vt -1 17
vt -2 0
vt -2 17
vt 1 17
vt 1 0
vt 2 17
vt 2 0
vt 0 -2
vt 1 -2
vt -1 -2

vn 0 0 1
vn -1 0 0
vn 0 0 -1
vn 1 0 0
vn 0 1 0
vn 0 -1 0

usemtl Crystal_1
f 12/17/7 11/16/7 10/15/7 9/14/7
f 14/19/8 13/18/8 11/15/8 12/14/8
f 16/14/9 15/15/9 13/21/9 14/20/9
f 9/14/10 10/15/10 15/23/10 16/22/10
f 14/25/11 12/21/11 9/15/11 16/24/11
f 11/16/12 13/26/12 15/24/12 10/15/12

g BossRoom_Wall
v -226 20 0
v -226 3 0
v -227 3 0
v -227 20 0
v -227 3 -2
v -227 20 -2
v -226 3 -2
v -226 20 -2

vt 0 17
vt 0 0
vt -1 0
vt -1 17
vt -2 0
vt -2 17
vt 1 17
vt 1 0
vt 2 17
vt 2 0
vt 0 -2
vt 1 -2
vt -1 -2

vn 0 0 1
vn -1 0 0
vn 0 0 -1
vn 1 0 0
vn 0 1 0
vn 0 -1 0

usemtl Crystal_1
f 20/30/13 19/29/13 18/28/13 17/27/13
f 22/32/14 21/31/14 19/28/14 20/27/14
f 24/27/15 23/28/15 21/34/15 22/33/15
f 17/27/16 18/28/16 23/36/16 24/35/16
f 22/38/17 20/34/17 17/28/17 24/37/17
f 19/29/18 21/39/18 23/37/18 18/28/18

g BossRoom_Floor
v -227 1 0
v -227 0 0
v -262 0 0
v -262 1 0
v -262 0 -2
v -262 1 -2
v -227 0 -2
v -227 1 -2

vt 0 1
vt 0 0
vt -35 0
vt -35 1
vt -2 0
vt -2 1
vt 35 1
vt 35 0
vt 2 1
vt 2 0
vt 0 -2
vt 35 -2
vt -35 -2

vn 0 0 1
vn -1 0 0
vn 0 0 -1
vn 1 0 0
vn 0 1 0
vn 0 -1 0

usemtl Crystal_1
f 28/43/19 27/42/19 26/41/19 25/40/19
f 30/45/20 29/44/20 27/41/20 28/40/20
f 32/40/21 31/41/21 29/47/21 30/46/21
f 25/40/22 26/41/22 31/49/22 32/48/22
f 30/51/23 28/47/23 25/41/23 32/50/23
f 27/42/24 29/52/24 31/50/24 26/41/24

g BossRoom_Ceiling
v -227 20 0
v -227 19 0
v -262 19 0
v -262 20 0
v -262 19 -2
v -262 20 -2
v -227 19 -2
v -227 20 -2

vt 0 1
vt 0 0
vt -35 0
vt -35 1
vt -2 0
vt -2 1
vt 35 1
vt 35 0
vt 2 1
vt 2 0
vt 0 -2
vt 35 -2
vt -35 -2

vn 0 0 1
vn -1 0 0
vn 0 0 -1
vn 1 0 0
vn 0 1 0
vn 0 -1 0

usemtl Crystal_1
f 36/56/25 35/55/25 34/54/25 33/53/25
f 38/58/26 37/57/26 35/54/26 36/53/26
f 40/53/27 39/54/27 37/60/27 38/59/27
f 33/53/28 34/54/28 39/62/28 40/61/28
f 38/64/29 36/60/29 33/54/29 40/63/29
f 35/55/30 37/65/30 39/63/30 34/54/30

