# ProBuilder 4.4.0
# https://unity3d.com/unity/features/worldbuilding/probuilder
# 10/3/2020 7:56:10 PM

mtllib ./Ground.mtl
o Ground

g Ground
v 0 0 0
v -24 0 0
v 0 1 0
v -24 1 0
v -24 0 -3
v -24 1 -3
v 0 2.980232E-08 -3
v 0 1 -3

vt 0 0
vt -24 0
vt 0 1
vt -24 1
vt -3 0
vt -3 1
vt 24 0
vt 24 1
vt 3 2.980232E-08
vt 3 1
vt 0 -3
vt 24 -3
vt -24 -3

vn 0 0 1
vn -1 0 0
vn 0 0 -1
vn 1 0 0
vn 0 1 0
vn 1.241763E-09 -1 -9.934108E-09

usemtl ProBuilderDefault
f 3/3/1 4/4/1 2/2/1 1/1/1
f 4/3/2 6/6/2 5/5/2 2/1/2
f 6/8/3 8/3/3 7/1/3 5/7/3
f 8/10/4 3/3/4 1/1/4 7/9/4
f 8/11/5 6/12/5 4/7/5 3/1/5
f 1/1/6 2/2/6 5/13/6 7/11/6

